<svg xmlns="http://www.w3.org/2000/svg" viewBox="0 0 512 512" width="512" height="512">
  <defs>
    <!-- Градиенты для красивого эффекта -->
    <linearGradient id="cupGradient" x1="0%" y1="0%" x2="100%" y2="100%">
      <stop offset="0%" style="stop-color:#ffffff;stop-opacity:1" />
      <stop offset="50%" style="stop-color:#f8f9fa;stop-opacity:1" />
      <stop offset="100%" style="stop-color:#e9ecef;stop-opacity:1" />
    </linearGradient>
    
    <linearGradient id="handleGradient" x1="0%" y1="0%" x2="100%" y2="100%">
      <stop offset="0%" style="stop-color:#ffffff;stop-opacity:1" />
      <stop offset="100%" style="stop-color:#dee2e6;stop-opacity:1" />
    </linearGradient>
    
    <radialGradient id="coffeeGradient" cx="50%" cy="30%" r="70%">
      <stop offset="0%" style="stop-color:#8B4513;stop-opacity:1" />
      <stop offset="50%" style="stop-color:#6B3410;stop-opacity:1" />
      <stop offset="100%" style="stop-color:#4A240C;stop-opacity:1" />
    </radialGradient>
    
    <!-- Тень -->
    <filter id="dropshadow" x="-50%" y="-50%" width="200%" height="200%">
      <feGaussianBlur in="SourceAlpha" stdDeviation="8"/>
      <feOffset dx="4" dy="4" result="offset" />
      <feComponentTransfer>
        <feFuncA type="linear" slope="0.3"/>
      </feComponentTransfer>
      <feMerge> 
        <feMergeNode/>
        <feMergeNode in="SourceGraphic"/> 
      </feMerge>
    </filter>
  </defs>
  
  <!-- Фон (прозрачный) -->
  <rect width="512" height="512" fill="none"/>
  
  <!-- Основа чашки -->
  <path d="M150 200 L150 380 Q150 420 190 420 L330 420 Q370 420 370 380 L370 200 Z" 
        fill="url(#cupGradient)" 
        stroke="#dee2e6" 
        stroke-width="3"
        filter="url(#dropshadow)"/>
  
  <!-- Ручка чашки -->
  <path d="M370 240 Q420 240 420 280 Q420 320 370 320" 
        fill="none" 
        stroke="url(#handleGradient)" 
        stroke-width="16" 
        stroke-linecap="round"/>
  
  <!-- Внутренний край чашки -->
  <ellipse cx="260" cy="200" rx="110" ry="20" 
           fill="none" 
           stroke="#dee2e6" 
           stroke-width="2"/>
  
  <!-- Кофе внутри -->
  <ellipse cx="260" cy="205" rx="105" ry="18" 
           fill="url(#coffeeGradient)"/>
  
  <!-- Блик на кофе -->
  <ellipse cx="240" cy="200" rx="25" ry="8" 
           fill="#A0522D" 
           opacity="0.6"/>
  
  <!-- Пар над кофе -->
  <g opacity="0.4">
    <path d="M220 180 Q225 160 220 140 Q215 120 220 100" 
          fill="none" 
          stroke="#ffffff" 
          stroke-width="4" 
          stroke-linecap="round"/>
    <path d="M260 175 Q265 155 260 135 Q255 115 260 95" 
          fill="none" 
          stroke="#ffffff" 
          stroke-width="4" 
          stroke-linecap="round"/>
    <path d="M300 180 Q305 160 300 140 Q295 120 300 100" 
          fill="none" 
          stroke="#ffffff" 
          stroke-width="4" 
          stroke-linecap="round"/>
  </g>
  
  <!-- Декоративные элементы на чашке -->
  <circle cx="200" cy="300" r="8" fill="#f8f9fa" opacity="0.8"/>
  <circle cx="320" cy="330" r="6" fill="#f8f9fa" opacity="0.6"/>
  <circle cx="180" cy="350" r="4" fill="#f8f9fa" opacity="0.7"/>
  
  <!-- Блик на чашке -->
  <ellipse cx="200" cy="280" rx="15" ry="40" 
           fill="#ffffff" 
           opacity="0.3"/>
</svg> 